# xmcd CD database file
#
# Track frame offsets:
#	187
#	17864
#	32477
#	49072
#	64699
#	82442
#	95569
#	114877
#	132919
#	157969
#	171102
#	180482
#
# Disc length: 2861 seconds
#
# Revision: 21
# Processed by: cddbd v1.5.2PL0 Copyright (c) Steve Scherf et al.
# Submitted via: CDex 1.70
#
DISCID=960b2b0c
DTITLE=Beck - Mellow Gold (clean)
DYEAR=1994
DGENRE=Rock
TTITLE0=Loser
TTITLE1=Pay No Mind (Snoozer)
TTITLE2=F___in With My Head (Mountain Dew Rock)
TTITLE3=Whiskeyclone, Hotel City 1997
TTITLE4=Soul Suckin Jerk
TTITLE5=Truckdrivin Neighbors Downstairs (Yellow Sweat)
TTITLE6=Sweet Sunshine
TTITLE7=Beercan
TTITLE8=Steal My Body Home
TTITLE9=Nitemare Hippy Girl
TTITLE10=Mutherfu__r
TTITLE11=Blackhole
EXTD=Geffen Records\nCatalog Number: DGCD-24634 YEAR: 1994
EXTT0=
EXTT1=
EXTT2=
EXTT3=
EXTT4=
EXTT5=
EXTT6=
EXTT7=
EXTT8=
EXTT9=
EXTT10=
EXTT11=
PLAYORDER=
